<svg id="Layer_1" data-name="Layer 1" xmlns="http://www.w3.org/2000/svg" viewBox="0 0 566.93 95.23"><defs><style>.cls-1{fill:#2b2d6a;}.cls-2{fill:#0062e8;}</style></defs><path class="cls-1" d="M13.15,36.17A20.06,20.06,0,0,1,31.21,25.41a20.58,20.58,0,0,1,8.49,1.87,17.36,17.36,0,0,1,6.66,5V11.06h9.17v59H46.36V63.44a17.08,17.08,0,0,1-6.18,5.26,19.2,19.2,0,0,1-9,2.07,19.63,19.63,0,0,1-10.48-2.91,20.55,20.55,0,0,1-7.5-8.13A25.06,25.06,0,0,1,10.4,47.89,24.35,24.35,0,0,1,13.15,36.17Zm31.33,4a13.09,13.09,0,0,0-4.9-5.1A12.83,12.83,0,0,0,33,33.3,12.94,12.94,0,0,0,21.6,40a15.64,15.64,0,0,0-1.87,7.85,16.33,16.33,0,0,0,1.87,8,13.24,13.24,0,0,0,4.95,5.23A12.7,12.7,0,0,0,33,62.88,12.86,12.86,0,0,0,44.48,56a16.12,16.12,0,0,0,1.88-7.93A15.88,15.88,0,0,0,44.48,40.16Z"/><path class="cls-1" d="M104.24,51.48H70.67A12.12,12.12,0,0,0,83.19,63.12q7.34,0,10.36-6.14h9.81a19.74,19.74,0,0,1-7.21,9.92,21.2,21.2,0,0,1-13,3.87,22.39,22.39,0,0,1-11.28-2.83,20,20,0,0,1-7.81-8,24.29,24.29,0,0,1-2.83-11.92A24.82,24.82,0,0,1,64,36.13a19.31,19.31,0,0,1,7.73-7.93,23,23,0,0,1,11.44-2.79,22.32,22.32,0,0,1,11.08,2.71,19.2,19.2,0,0,1,7.58,7.61A23,23,0,0,1,104.56,47,28.79,28.79,0,0,1,104.24,51.48Zm-9.17-7.34a10.34,10.34,0,0,0-3.59-8,12.82,12.82,0,0,0-8.69-3,11.67,11.67,0,0,0-8.05,3,12.52,12.52,0,0,0-4,8.09Z"/><path class="cls-1" d="M172.76,27.56a15.57,15.57,0,0,1,6.46,6.38,20.78,20.78,0,0,1,2.35,10.2V70.05h-9V45.5q0-5.89-2.95-9a10.5,10.5,0,0,0-8.05-3.15,10.62,10.62,0,0,0-8.09,3.15q-3,3.15-3,9V70.05h-9V45.5c0-3.93-1-7-2.95-9a10.5,10.5,0,0,0-8.05-3.15,10.64,10.64,0,0,0-8.1,3.15q-3,3.15-3,9V70.05H110.3V26.13h9.08v5A15.15,15.15,0,0,1,125,26.92a18,18,0,0,1,7.34-1.51,19.53,19.53,0,0,1,9.41,2.23,15.21,15.21,0,0,1,6.37,6.46,14.78,14.78,0,0,1,6.22-6.34,18.39,18.39,0,0,1,9.09-2.35A19.76,19.76,0,0,1,172.76,27.56Z"/><path class="cls-1" d="M197.75,67.94a20.23,20.23,0,0,1-7.89-8A24.09,24.09,0,0,1,187,48.05a23.58,23.58,0,0,1,2.95-11.88,20.36,20.36,0,0,1,8.05-8,24.69,24.69,0,0,1,22.8,0,20.36,20.36,0,0,1,8.05,8,23.58,23.58,0,0,1,2.95,11.88,23.07,23.07,0,0,1-3,11.88,20.9,20.9,0,0,1-8.25,8A23.74,23.74,0,0,1,209,70.77,22.48,22.48,0,0,1,197.75,67.94Zm17.82-6.74a12.72,12.72,0,0,0,5-5,16.09,16.09,0,0,0,1.92-8.13A16.48,16.48,0,0,0,220.63,40a12.28,12.28,0,0,0-4.86-5,13.27,13.27,0,0,0-6.54-1.68,13.07,13.07,0,0,0-6.5,1.68A11.9,11.9,0,0,0,198,40a17.06,17.06,0,0,0-1.75,8.09q0,7.1,3.62,11A12,12,0,0,0,209,62.88,13.5,13.5,0,0,0,215.57,61.2Z"/><path class="cls-1" d="M525.79,51.85,508.3,21.57,538.59,4.08l17.49,30.29Zm-8.21-27.8,10.7,18.52L546.8,31.88,536.1,13.36Z"/><path class="cls-2" d="M253.81,68.9a16.37,16.37,0,0,1-6.5-5.1,12.8,12.8,0,0,1-2.55-7.22h9.41a6.4,6.4,0,0,0,2.67,4.66,9.69,9.69,0,0,0,6.1,1.88,10.23,10.23,0,0,0,5.94-1.48A4.45,4.45,0,0,0,271,57.86a3.9,3.9,0,0,0-2.35-3.67,44.38,44.38,0,0,0-7.46-2.63,71.43,71.43,0,0,1-8.05-2.63A14.14,14.14,0,0,1,247.75,45a10.2,10.2,0,0,1-2.27-6.94,10.82,10.82,0,0,1,2.07-6.41,13.82,13.82,0,0,1,5.94-4.59,22.3,22.3,0,0,1,8.89-1.67q7.49,0,12.08,3.79a13.59,13.59,0,0,1,4.9,10.32h-9.09a6.48,6.48,0,0,0-2.39-4.7,9,9,0,0,0-5.82-1.76,9.38,9.38,0,0,0-5.5,1.36A4.18,4.18,0,0,0,254.65,38a3.9,3.9,0,0,0,1.27,3A9.19,9.19,0,0,0,259,42.83q1.83.68,5.42,1.71a59.54,59.54,0,0,1,7.85,2.59A14.69,14.69,0,0,1,277.61,51a10.31,10.31,0,0,1,2.31,6.78,11.28,11.28,0,0,1-2.08,6.69A13.74,13.74,0,0,1,272,69.1a24.25,24.25,0,0,1-18.18-.2Z"/><path class="cls-2" d="M286.25,36.17a20.06,20.06,0,0,1,18.06-10.76,19.2,19.2,0,0,1,9.05,2.07,17.46,17.46,0,0,1,6.1,5V26.13h9.17V90.94h-9.17V63.68a17.23,17.23,0,0,1-6.22,5A20.09,20.09,0,0,1,304,70.77a19.11,19.11,0,0,1-10.32-2.91,20.8,20.8,0,0,1-7.42-8.13,25.06,25.06,0,0,1-2.75-11.84A24.35,24.35,0,0,1,286.25,36.17Zm31.34,4a13.19,13.19,0,0,0-4.91-5.1,12.82,12.82,0,0,0-6.53-1.76A13,13,0,0,0,299.61,35a12.8,12.8,0,0,0-4.9,5,15.65,15.65,0,0,0-1.88,7.85,16.33,16.33,0,0,0,1.88,8,13.14,13.14,0,0,0,4.94,5.23,12.84,12.84,0,0,0,13,0A13,13,0,0,0,317.59,56a16.22,16.22,0,0,0,1.87-7.93A16,16,0,0,0,317.59,40.16Z"/><path class="cls-2" d="M377.18,26.13V70.05h-9.09V64.87a14.7,14.7,0,0,1-5.62,4.27,17.91,17.91,0,0,1-7.37,1.55,19.73,19.73,0,0,1-9.29-2.15,15.57,15.57,0,0,1-6.46-6.38A20.65,20.65,0,0,1,337,52V26.13h9V50.6q0,5.91,2.95,9A10.48,10.48,0,0,0,357,62.8a10.62,10.62,0,0,0,8.09-3.15q3-3.15,3-9V26.13Z"/><path class="cls-2" d="M385.67,36.17a20,20,0,0,1,18-10.76,19.26,19.26,0,0,1,9.05,2,18.44,18.44,0,0,1,6.17,5.06V26.13H428V70.05h-9.17V63.52a18.08,18.08,0,0,1-6.29,5.18,20.41,20.41,0,0,1-19.46-.84,20.65,20.65,0,0,1-7.45-8.13,25,25,0,0,1-2.75-11.84A24.24,24.24,0,0,1,385.67,36.17Zm31.33,4a13.16,13.16,0,0,0-4.9-5.1,12.83,12.83,0,0,0-6.54-1.76A12.91,12.91,0,0,0,394.12,40a15.64,15.64,0,0,0-1.87,7.85,16.33,16.33,0,0,0,1.87,8,13.28,13.28,0,0,0,4.94,5.23,12.86,12.86,0,0,0,13,0A13,13,0,0,0,417,56a16.11,16.11,0,0,0,1.87-7.93A15.88,15.88,0,0,0,417,40.16Z"/><path class="cls-2" d="M451.2,27.28a15.67,15.67,0,0,1,7.85-1.87v9.41h-2.31q-5.34,0-8.09,2.71t-2.75,9.4V70.05h-9.09V26.13h9.09V32.5A14.34,14.34,0,0,1,451.2,27.28Z"/><path class="cls-2" d="M504.18,51.48H470.61a12.12,12.12,0,0,0,12.52,11.64q7.33,0,10.37-6.14h9.8a19.74,19.74,0,0,1-7.21,9.92,21.18,21.18,0,0,1-13,3.87,22.39,22.39,0,0,1-11.28-2.83A20,20,0,0,1,464,60a24.29,24.29,0,0,1-2.83-11.92A24.82,24.82,0,0,1,464,36.13a19.31,19.31,0,0,1,7.73-7.93,23,23,0,0,1,11.44-2.79,22.32,22.32,0,0,1,11.08,2.71,19.2,19.2,0,0,1,7.58,7.61A23,23,0,0,1,504.5,47,28.79,28.79,0,0,1,504.18,51.48ZM495,44.14a10.34,10.34,0,0,0-3.59-8,12.82,12.82,0,0,0-8.69-3,11.69,11.69,0,0,0-8.05,3,12.52,12.52,0,0,0-4,8.09Z"/></svg>